# Blender v2.91.0 OBJ File: ''
# www.blender.org
mtllib InsideCorner_30x30.mtl
v 14.855360 0.000000 -14.821905
v 14.855360 0.000000 -1.055954
v 14.855360 0.000000 -3.363646
v 14.855360 0.000000 -5.671338
v 14.855360 0.000000 -7.979030
v 14.855360 0.000000 -10.286722
v 14.855360 0.000000 -12.594415
v 5.230484 0.000000 -3.060009
v 0.420907 0.000000 -10.286722
v 8.954268 0.000000 -0.903512
v 14.855360 0.000000 0.303492
v -0.253297 0.000000 -14.821905
v 1.377190 0.000000 -7.979030
v 2.762648 0.000000 -5.671338
v -0.073865 0.000000 -12.594415
v 12.195775 0.000000 0.122223
v 12.759708 0.000000 -1.055954
v 14.855360 0.000000 -3.389744
v 14.831246 0.000000 -3.362885
vt 0.395041 0.800504
vt 0.222430 0.637379
vt 0.242450 0.002762
vt 0.245397 0.000119
vt 0.395040 0.001168
vt 0.547581 0.892084
vt 0.547581 0.001168
vt 0.999900 0.999860
vt 0.852661 0.988000
vt 0.852661 0.001168
vt 0.999900 0.001168
vt 0.079884 0.391235
vt 0.012082 0.176969
vt 0.089960 0.139692
vt 0.700121 0.955295
vt 0.700121 0.001168
vt 0.000100 0.001168
vt 0.089960 0.001168
vt 0.242524 0.000100
vn 0.0000 1.0000 0.0000
usemtl None
s off
f 14/1/1 8/2/1 19/3/1 18/4/1 4/5/1
f 13/6/1 14/1/1 4/5/1 5/7/1
f 12/8/1 15/9/1 7/10/1 1/11/1
f 10/12/1 16/13/1 17/14/1
f 9/15/1 13/6/1 5/7/1 6/16/1
f 8/2/1 10/12/1 17/14/1 19/3/1
f 15/9/1 9/15/1 6/16/1 7/10/1
f 17/14/1 16/13/1 11/17/1 2/18/1
f 19/3/1 17/14/1 2/18/1 3/19/1
